<mxfile host="app.diagrams.net" modified="2024-01-25T07:06:47.609Z" agent="Mozilla/5.0 (Windows NT 10.0; Win64; x64) AppleWebKit/537.36 (KHTML, like Gecko) Chrome/120.0.0.0 Safari/537.36" etag="ufO4pKy0VyCaDTlDeexx" version="23.0.1" type="device">
  <diagram id="C5RBs43oDa-KdzZeNtuy" name="Page-1">
    <mxGraphModel dx="1434" dy="746" grid="1" gridSize="10" guides="1" tooltips="1" connect="1" arrows="1" fold="1" page="1" pageScale="1" pageWidth="827" pageHeight="1169" math="0" shadow="0">
      <root>
        <mxCell id="WIyWlLk6GJQsqaUBKTNV-0" />
        <mxCell id="WIyWlLk6GJQsqaUBKTNV-1" parent="WIyWlLk6GJQsqaUBKTNV-0" />
        <mxCell id="00qcEYFr58BkZqc6Jp_l-22" style="edgeStyle=orthogonalEdgeStyle;rounded=0;orthogonalLoop=1;jettySize=auto;html=1;exitX=0.5;exitY=1;exitDx=0;exitDy=0;entryX=0.5;entryY=0;entryDx=0;entryDy=0;" edge="1" parent="WIyWlLk6GJQsqaUBKTNV-1" source="FEB9wpUzkoygkJ6sHoTW-0" target="00qcEYFr58BkZqc6Jp_l-0">
          <mxGeometry relative="1" as="geometry" />
        </mxCell>
        <mxCell id="FEB9wpUzkoygkJ6sHoTW-0" value="Начало" style="ellipse;whiteSpace=wrap;html=1;" parent="WIyWlLk6GJQsqaUBKTNV-1" vertex="1">
          <mxGeometry x="300" y="30" width="120" height="50" as="geometry" />
        </mxCell>
        <mxCell id="00qcEYFr58BkZqc6Jp_l-2" value="" style="edgeStyle=orthogonalEdgeStyle;rounded=0;orthogonalLoop=1;jettySize=auto;html=1;" edge="1" parent="WIyWlLk6GJQsqaUBKTNV-1" source="00qcEYFr58BkZqc6Jp_l-0" target="00qcEYFr58BkZqc6Jp_l-1">
          <mxGeometry relative="1" as="geometry" />
        </mxCell>
        <mxCell id="00qcEYFr58BkZqc6Jp_l-4" value="" style="edgeStyle=orthogonalEdgeStyle;rounded=0;orthogonalLoop=1;jettySize=auto;html=1;" edge="1" parent="WIyWlLk6GJQsqaUBKTNV-1" source="00qcEYFr58BkZqc6Jp_l-0" target="00qcEYFr58BkZqc6Jp_l-3">
          <mxGeometry relative="1" as="geometry" />
        </mxCell>
        <mxCell id="00qcEYFr58BkZqc6Jp_l-0" value="user.IsPremium" style="rhombus;whiteSpace=wrap;html=1;shadow=0;fontFamily=Helvetica;fontSize=12;align=center;strokeWidth=1;spacing=6;spacingTop=-4;" vertex="1" parent="WIyWlLk6GJQsqaUBKTNV-1">
          <mxGeometry x="310" y="100" width="100" height="80" as="geometry" />
        </mxCell>
        <mxCell id="00qcEYFr58BkZqc6Jp_l-21" style="edgeStyle=orthogonalEdgeStyle;rounded=0;orthogonalLoop=1;jettySize=auto;html=1;exitX=0.5;exitY=1;exitDx=0;exitDy=0;entryX=0.5;entryY=0;entryDx=0;entryDy=0;" edge="1" parent="WIyWlLk6GJQsqaUBKTNV-1" source="00qcEYFr58BkZqc6Jp_l-1" target="00qcEYFr58BkZqc6Jp_l-18">
          <mxGeometry relative="1" as="geometry" />
        </mxCell>
        <mxCell id="00qcEYFr58BkZqc6Jp_l-1" value="У Вас премиум подписка" style="shape=parallelogram;perimeter=parallelogramPerimeter;whiteSpace=wrap;html=1;fixedSize=1;shadow=0;strokeWidth=1;spacing=6;spacingTop=-4;" vertex="1" parent="WIyWlLk6GJQsqaUBKTNV-1">
          <mxGeometry x="140" y="110" width="120" height="60" as="geometry" />
        </mxCell>
        <mxCell id="00qcEYFr58BkZqc6Jp_l-6" value="" style="edgeStyle=orthogonalEdgeStyle;rounded=0;orthogonalLoop=1;jettySize=auto;html=1;" edge="1" parent="WIyWlLk6GJQsqaUBKTNV-1" source="00qcEYFr58BkZqc6Jp_l-3" target="00qcEYFr58BkZqc6Jp_l-5">
          <mxGeometry relative="1" as="geometry" />
        </mxCell>
        <mxCell id="00qcEYFr58BkZqc6Jp_l-3" value="Посетите наш новый сайт с бесплатными играми free.games.for.a.fool.com" style="shape=parallelogram;perimeter=parallelogramPerimeter;whiteSpace=wrap;html=1;fixedSize=1;shadow=0;strokeWidth=1;spacing=6;spacingTop=-4;" vertex="1" parent="WIyWlLk6GJQsqaUBKTNV-1">
          <mxGeometry x="450" y="100" width="190" height="80" as="geometry" />
        </mxCell>
        <mxCell id="00qcEYFr58BkZqc6Jp_l-10" value="" style="edgeStyle=orthogonalEdgeStyle;rounded=0;orthogonalLoop=1;jettySize=auto;html=1;" edge="1" parent="WIyWlLk6GJQsqaUBKTNV-1" source="00qcEYFr58BkZqc6Jp_l-5" target="00qcEYFr58BkZqc6Jp_l-9">
          <mxGeometry relative="1" as="geometry" />
        </mxCell>
        <mxCell id="00qcEYFr58BkZqc6Jp_l-5" value="&amp;nbsp;Thread.Sleep(1000);" style="whiteSpace=wrap;html=1;shadow=0;strokeWidth=1;spacing=6;spacingTop=-4;" vertex="1" parent="WIyWlLk6GJQsqaUBKTNV-1">
          <mxGeometry x="485" y="210" width="120" height="60" as="geometry" />
        </mxCell>
        <mxCell id="00qcEYFr58BkZqc6Jp_l-13" value="" style="edgeStyle=orthogonalEdgeStyle;rounded=0;orthogonalLoop=1;jettySize=auto;html=1;entryX=0.5;entryY=0;entryDx=0;entryDy=0;" edge="1" parent="WIyWlLk6GJQsqaUBKTNV-1" source="00qcEYFr58BkZqc6Jp_l-9" target="00qcEYFr58BkZqc6Jp_l-14">
          <mxGeometry relative="1" as="geometry">
            <mxPoint x="515" y="525" as="targetPoint" />
          </mxGeometry>
        </mxCell>
        <mxCell id="00qcEYFr58BkZqc6Jp_l-9" value="&lt;br&gt;&lt;span style=&quot;color: rgb(0, 0, 0); font-family: Helvetica; font-size: 12px; font-style: normal; font-variant-ligatures: normal; font-variant-caps: normal; font-weight: 400; letter-spacing: normal; orphans: 2; text-align: center; text-indent: 0px; text-transform: none; widows: 2; word-spacing: 0px; -webkit-text-stroke-width: 0px; background-color: rgb(251, 251, 251); text-decoration-thickness: initial; text-decoration-style: initial; text-decoration-color: initial; float: none; display: inline !important;&quot;&gt;Посетите наш новый сайт с бесплатными играми free.games.for.a.fool.com&lt;/span&gt;" style="shape=parallelogram;perimeter=parallelogramPerimeter;whiteSpace=wrap;html=1;fixedSize=1;shadow=0;strokeWidth=1;spacing=6;spacingTop=-4;" vertex="1" parent="WIyWlLk6GJQsqaUBKTNV-1">
          <mxGeometry x="450" y="290" width="190" height="70" as="geometry" />
        </mxCell>
        <mxCell id="00qcEYFr58BkZqc6Jp_l-16" value="" style="edgeStyle=orthogonalEdgeStyle;rounded=0;orthogonalLoop=1;jettySize=auto;html=1;" edge="1" parent="WIyWlLk6GJQsqaUBKTNV-1" source="00qcEYFr58BkZqc6Jp_l-14" target="00qcEYFr58BkZqc6Jp_l-15">
          <mxGeometry relative="1" as="geometry" />
        </mxCell>
        <mxCell id="00qcEYFr58BkZqc6Jp_l-14" value="&amp;nbsp;Thread.Sleep(2000);" style="whiteSpace=wrap;html=1;shadow=0;strokeWidth=1;spacing=6;spacingTop=-4;" vertex="1" parent="WIyWlLk6GJQsqaUBKTNV-1">
          <mxGeometry x="485" y="390" width="120" height="60" as="geometry" />
        </mxCell>
        <mxCell id="00qcEYFr58BkZqc6Jp_l-20" style="edgeStyle=orthogonalEdgeStyle;rounded=0;orthogonalLoop=1;jettySize=auto;html=1;exitX=0.5;exitY=1;exitDx=0;exitDy=0;entryX=0.5;entryY=0;entryDx=0;entryDy=0;" edge="1" parent="WIyWlLk6GJQsqaUBKTNV-1" source="00qcEYFr58BkZqc6Jp_l-15" target="00qcEYFr58BkZqc6Jp_l-18">
          <mxGeometry relative="1" as="geometry">
            <Array as="points">
              <mxPoint x="545" y="600" />
              <mxPoint x="340" y="600" />
            </Array>
          </mxGeometry>
        </mxCell>
        <mxCell id="00qcEYFr58BkZqc6Jp_l-15" value="Оформите премиум-подписку на наш сервис, чтобы не видеть рекламу" style="shape=parallelogram;perimeter=parallelogramPerimeter;whiteSpace=wrap;html=1;fixedSize=1;shadow=0;strokeWidth=1;spacing=6;spacingTop=-4;" vertex="1" parent="WIyWlLk6GJQsqaUBKTNV-1">
          <mxGeometry x="445" y="490" width="200" height="90" as="geometry" />
        </mxCell>
        <mxCell id="00qcEYFr58BkZqc6Jp_l-18" value="Конец" style="ellipse;whiteSpace=wrap;html=1;" vertex="1" parent="WIyWlLk6GJQsqaUBKTNV-1">
          <mxGeometry x="280" y="620" width="120" height="70" as="geometry" />
        </mxCell>
        <mxCell id="00qcEYFr58BkZqc6Jp_l-23" value="Да" style="text;html=1;strokeColor=none;fillColor=none;align=center;verticalAlign=middle;whiteSpace=wrap;rounded=0;" vertex="1" parent="WIyWlLk6GJQsqaUBKTNV-1">
          <mxGeometry x="260" y="110" width="60" height="30" as="geometry" />
        </mxCell>
        <mxCell id="00qcEYFr58BkZqc6Jp_l-24" value="Нет" style="text;html=1;strokeColor=none;fillColor=none;align=center;verticalAlign=middle;whiteSpace=wrap;rounded=0;" vertex="1" parent="WIyWlLk6GJQsqaUBKTNV-1">
          <mxGeometry x="400" y="110" width="60" height="30" as="geometry" />
        </mxCell>
      </root>
    </mxGraphModel>
  </diagram>
</mxfile>
